<?xml version="1.0" encoding="utf-8"?>
<!-- Generator: Adobe Illustrator 23.0.1, SVG Export Plug-In . SVG Version: 6.00 Build 0)  -->
<svg version="1.1" id="Layer_1" xmlns="http://www.w3.org/2000/svg" xmlns:xlink="http://www.w3.org/1999/xlink" x="0px" y="0px"
	 viewBox="0 0 42 42" style="enable-background:new 0 0 42 42;" xml:space="preserve">
<style type="text/css">
	.st0{fill:#FFFFFF;}
</style>
<g>
	<path class="st0" d="M35.91,3.5H6.08C4.66,3.5,3.5,4.63,3.5,6.02v29.95c0,1.39,1.16,2.53,2.58,2.53h29.83
		c1.43,0,2.59-1.13,2.59-2.53V6.02C38.5,4.63,37.34,3.5,35.91,3.5z M31.27,15.73c0.01,0.23,0.02,0.46,0.02,0.68
		c0,7.01-5.33,15.08-15.08,15.08c-2.99,0-5.78-0.88-8.13-2.38c0.41,0.05,0.84,0.07,1.26,0.07c2.48,0,4.77-0.85,6.59-2.27
		c-2.32-0.04-4.28-1.58-4.95-3.68c0.32,0.06,0.66,0.1,1,0.1c0.48,0,0.95-0.07,1.4-0.19c-2.42-0.49-4.25-2.63-4.25-5.2
		c0-0.02,0-0.05,0-0.07c0.71,0.4,1.53,0.64,2.4,0.66c-1.42-0.95-2.36-2.57-2.36-4.41c0-0.97,0.26-1.88,0.72-2.66
		c2.62,3.21,6.52,5.32,10.93,5.54c-0.09-0.39-0.14-0.79-0.14-1.21c0-2.93,2.37-5.3,5.3-5.3c1.52,0,2.9,0.65,3.87,1.67
		c1.21-0.24,2.34-0.68,3.37-1.29c-0.4,1.24-1.24,2.28-2.33,2.93c1.07-0.13,2.09-0.41,3.04-0.84C33.21,14.05,32.31,14.98,31.27,15.73
		z"/>
</g>
</svg>
