<?xml version="1.0" encoding="utf-8"?>
<!-- Generator: Adobe Illustrator 23.0.1, SVG Export Plug-In . SVG Version: 6.00 Build 0)  -->
<svg version="1.1" id="Layer_1" xmlns="http://www.w3.org/2000/svg" xmlns:xlink="http://www.w3.org/1999/xlink" x="0px" y="0px"
	 viewBox="0 0 42 42" style="enable-background:new 0 0 42 42;" xml:space="preserve">
<style type="text/css">
	.st0{fill:#FFFFFF;}
</style>
<g>
	<path class="st0" d="M34.52,3.5H4.69c-1.43,0-2.58,1.13-2.58,2.52v29.95c0,1.39,1.16,2.53,2.58,2.53h29.83
		c1.43,0,2.59-1.13,2.59-2.53V6.02C37.11,4.63,35.94,3.5,34.52,3.5 M12.49,33.33H7.3v-16.7h5.19V33.33z M9.89,14.34
		c-1.66,0-3.01-1.35-3.01-3.01c0-1.66,1.35-3.01,3.01-3.01c1.66,0,3.01,1.35,3.01,3.01C12.9,12.99,11.55,14.34,9.89,14.34
		 M31.93,33.33h-5.19V25.2c0-1.94-0.04-4.43-2.7-4.43c-2.7,0-3.12,2.11-3.12,4.29v8.26h-5.19v-16.7h4.98v2.28h0.07
		c0.69-1.31,2.39-2.7,4.91-2.7c5.26,0,6.23,3.46,6.23,7.96V33.33z"/>
	<polygon class="st0" points="37.96,32.29 37.96,32.45 38.24,32.45 38.24,33.33 38.4,33.33 38.4,32.45 38.68,32.45 38.68,32.29 	"/>
	<polygon class="st0" points="39.67,32.29 39.37,33.05 39.07,32.29 38.85,32.29 38.85,33.33 39.01,33.33 39.01,32.54 39.32,33.33 
		39.42,33.33 39.74,32.54 39.74,33.33 39.89,33.33 39.89,32.29 	"/>
</g>
</svg>
