<?xml version="1.0" encoding="utf-8"?>
<!-- Generator: Adobe Illustrator 23.0.1, SVG Export Plug-In . SVG Version: 6.00 Build 0)  -->
<svg version="1.1" id="Layer_1" xmlns="http://www.w3.org/2000/svg" xmlns:xlink="http://www.w3.org/1999/xlink" x="0px" y="0px"
	 viewBox="0 0 42 42" style="enable-background:new 0 0 42 42;" xml:space="preserve">
<style type="text/css">
	.st0{fill:#FFFFFF;}
</style>
<path class="st0" d="M36.57,3.5H5.43C4.37,3.5,3.5,4.37,3.5,5.43v31.14c0,1.07,0.87,1.93,1.93,1.93H22.2V24.97h-4.55v-5.3h4.55v-3.9
	c0-4.52,2.76-6.98,6.79-6.98c1.36-0.01,2.72,0.06,4.08,0.21v4.73h-2.78c-2.19,0-2.62,1.04-2.62,2.57v3.37h5.25l-0.68,5.3h-4.56V38.5
	h8.9c1.07,0,1.93-0.87,1.93-1.93V5.43C38.5,4.37,37.63,3.5,36.57,3.5"/>
</svg>
