<svg id="Layer_1" data-name="Layer 1" xmlns="http://www.w3.org/2000/svg" viewBox="0 0 2850.96 1180"><defs><style>.cls-1{fill:#fff;}.cls-2{opacity:0.8;}.cls-3{fill:#64addd;}.cls-4{fill:#d0d1cf;}.cls-5{fill:#0156a4;}</style></defs><path class="cls-1" d="M1860.81,2288.15l81.3-581.86h92.62q38.88,0,56.56,17t17.67,53a218.84,218.84,0,0,1-2.12,29.69l-16.26,116.66q-7.07,54.45-44.54,64.33a48.31,48.31,0,0,1,24.39,14.85q10.25,11.32,10.25,34.65v7.42a38.61,38.61,0,0,1-.7,7.42l-19.8,138.57q-7.79,51.63-33.93,75t-72.82,23.33Zm162.61-227.66c.46-3.29.82-6.36,1.06-9.19s.35-5.41.35-7.78q0-15.54-7.07-22.62t-25.45-7.07h-39.59l-31.11,221.29h38.89q38.18,0,44.54-45.25Zm33.23-255.22q.69-4.24,1.06-8.14t.35-7.42q0-16.26-7.42-22.62t-23.69-6.37h-38.88l-29,205.74h39.59q19.1,0,28.28-9.19t12.73-29.69Z" transform="translate(-609.07 -1544.42)"/><path class="cls-1" d="M2090.58,2288.15l81.31-581.86h48.78l-81.31,581.86Z" transform="translate(-609.07 -1544.42)"/><path class="cls-1" d="M2310.46,2288.15q0-7.77.7-15.56t2.13-16.26q-12.73,17.68-29.7,27.22a75.06,75.06,0,0,1-37.47,9.55q-47.37,0-47.37-53.74v-11a44.34,44.34,0,0,1,1.42-11l50.9-366.94h48.78l-50.2,359.16a32.94,32.94,0,0,0-.7,6.36v5.66q0,12.72,5.3,18c3.54,3.53,9.3,5.3,17.32,5.3a47.86,47.86,0,0,0,22.63-6q11.3-6,18.38-20.15l51.61-368.35H2413l-60.8,437.64Z" transform="translate(-609.07 -1544.42)"/><path class="cls-1" d="M2537.4,2198.36q4.93-34.64,7.78-55.15t4.24-31.46c.94-7.3,1.52-12.37,1.77-15.2s.35-5.18.35-7.07a50.93,50.93,0,0,0-2.83-18,81.69,81.69,0,0,0-8.48-15.91q-9.2-12.72-18.38-23.68t-18.74-21.92q-9.54-10.95-19.44-23.33t-20.5-27.93a60,60,0,0,1-9.55-19.08,78.39,78.39,0,0,1-2.47-20.51c0-2.83.11-6,.35-9.54s.82-9.55,1.77-18,2.47-20.15,4.59-35,5.06-35,8.84-60.45q13.43-96.13,103.93-96.15,41,0,59,17t18,51.61a194.7,194.7,0,0,1-2.12,27.57l-14.85,106h-50.19l14.14-99c.46-2.82.82-5.65,1.06-8.48s.35-5.41.35-7.78q0-14.84-6.71-23.68t-24.4-8.84q-37.47,0-43.83,41.71-4.95,35.37-7.78,55.5t-4.24,30.76q-1.42,10.61-1.77,14.14c-.24,2.36-.35,4.24-.35,5.65a38.34,38.34,0,0,0,2.12,13.44,60,60,0,0,0,6.36,12,358,358,0,0,0,36.77,47.37,465.74,465.74,0,0,1,38.18,47.36,90.36,90.36,0,0,1,12.37,24q3.87,12,3.89,28.28c0,2.83-.12,6.26-.36,10.25s-.95,10.26-2.12,18.74-2.83,20.15-4.95,35-4.84,34.76-8.13,59.74q-6.36,46.66-30.75,71.41t-73.18,24.74q-41,0-60.09-18.38T2408,2221.69a143.19,143.19,0,0,1,2.12-23.33l17.68-123.73h51.61l-16.26,115.95c-.48,2.83-.83,5.55-1.07,8.13s-.35,5.07-.35,7.43q0,16.26,7.07,25.8t24.75,9.55q20.49,0,30.4-11T2537.4,2198.36Z" transform="translate(-609.07 -1544.42)"/><path class="cls-1" d="M2724.75,2291a51.71,51.71,0,0,1-10.6,2.47,86.33,86.33,0,0,1-12.73,1.06q-33.93,0-49.84-18t-15.91-50.55v-11a44.88,44.88,0,0,1,1.42-11l43.83-310.37h-20.5l5.65-43.13h20.51l19.79-138.57h48.79l-19.8,138.57h49.49l-5.66,43.13H2729.7L2685.87,2204c-.48,2.83-.83,5.55-1.06,8.13s-.35,5.08-.35,7.43q0,18.39,8.83,25.8t27.93,7.43h4.59a14.22,14.22,0,0,0,4.6-.71Z" transform="translate(-609.07 -1544.42)"/><path class="cls-1" d="M2760.09,2288.15l60.81-437.64h41a234.14,234.14,0,0,1-2.12,31.82q12-19.1,26.16-27.57a60.59,60.59,0,0,1,31.82-8.49q9.18,0,14.84,2.83l-7.77,54.44a21.07,21.07,0,0,0-9.55-3.89,66.86,66.86,0,0,0-11.66-1.06,55.3,55.3,0,0,0-23,5.3q-11.67,5.31-20.86,20.86l-50.9,363.4Z" transform="translate(-609.07 -1544.42)"/><path class="cls-1" d="M3032.29,2110h46l-13.44,96.16q-12.72,88.38-91.2,88.37-65.06,0-65-65a142.08,142.08,0,0,1,2.12-23.33l38.18-272.91q6.36-44.54,29-67.16t59.39-22.63q67.16,0,67.17,67.17v11.31a46.49,46.49,0,0,1-1.42,11.31l-19.79,140.7H2974.32l-18.38,132.21q-.72,3.54-1.06,6.36a43.09,43.09,0,0,0-.36,5.65q0,26.88,26.16,26.87,33.22,0,38.18-38.88ZM3057,1933.23a22.34,22.34,0,0,0,.7-5.3v-4.6q0-29-27.57-29-31.12,0-36.06,38.88l-14.84,105.35h62.92Z" transform="translate(-609.07 -1544.42)"/><path class="cls-1" d="M3230.25,2110h46l-13.44,96.16q-12.72,88.38-91.2,88.37-65.06,0-65-65a142.08,142.08,0,0,1,2.12-23.33l38.18-272.91q6.36-44.54,29-67.16t59.39-22.63q67.15,0,67.17,67.17v11.31a46.49,46.49,0,0,1-1.42,11.31l-19.79,140.7H3172.28l-18.38,132.21c-.48,2.36-.83,4.48-1.07,6.36a44.87,44.87,0,0,0-.35,5.65q0,26.88,26.16,26.87,33.22,0,38.18-38.88ZM3255,1933.23a22.34,22.34,0,0,0,.7-5.3v-4.6q0-29-27.57-29-31.12,0-36.06,38.88l-14.84,105.35h62.92Z" transform="translate(-609.07 -1544.42)"/><path class="cls-1" d="M3399.93,2291a51.88,51.88,0,0,1-10.6,2.47,86.33,86.33,0,0,1-12.73,1.06q-33.95,0-49.84-18t-15.91-50.55v-11a44.86,44.86,0,0,1,1.41-11l43.84-310.37h-20.51l5.66-43.13h20.5l19.8-138.57h48.78l-19.79,138.57H3460l-5.66,43.13h-49.49L3361,2204c-.47,2.83-.82,5.55-1.06,8.13s-.35,5.08-.35,7.43q0,18.39,8.84,25.8t27.93,7.43H3401a14.26,14.26,0,0,0,4.6-.71Z" transform="translate(-609.07 -1544.42)"/><g class="cls-2"><path class="cls-3" d="M1860.81,2288.15l81.3-581.86h92.62q38.88,0,56.56,17t17.67,53a218.84,218.84,0,0,1-2.12,29.69l-16.26,116.66q-7.07,54.45-44.54,64.33a48.31,48.31,0,0,1,24.39,14.85q10.25,11.32,10.25,34.65v7.42a38.61,38.61,0,0,1-.7,7.42l-19.8,138.57q-7.79,51.63-33.93,75t-72.82,23.33Zm162.61-227.66c.46-3.29.82-6.36,1.06-9.19s.35-5.41.35-7.78q0-15.54-7.07-22.62t-25.45-7.07h-39.59l-31.11,221.29h38.89q38.18,0,44.54-45.25Zm33.23-255.22q.69-4.24,1.06-8.14t.35-7.42q0-16.26-7.42-22.62t-23.69-6.37h-38.88l-29,205.74h39.59q19.1,0,28.28-9.19t12.73-29.69Z" transform="translate(-609.07 -1544.42)"/><path class="cls-3" d="M2090.58,2288.15l81.31-581.86h48.78l-81.31,581.86Z" transform="translate(-609.07 -1544.42)"/><path class="cls-3" d="M2310.46,2288.15q0-7.77.7-15.56t2.13-16.26q-12.73,17.68-29.7,27.22a75.06,75.06,0,0,1-37.47,9.55q-47.37,0-47.37-53.74v-11a44.34,44.34,0,0,1,1.42-11l50.9-366.94h48.78l-50.2,359.16a32.94,32.94,0,0,0-.7,6.36v5.66q0,12.72,5.3,18c3.54,3.53,9.3,5.3,17.32,5.3a47.86,47.86,0,0,0,22.63-6q11.3-6,18.38-20.15l51.61-368.35H2413l-60.8,437.64Z" transform="translate(-609.07 -1544.42)"/><path class="cls-3" d="M2537.4,2198.36q4.93-34.64,7.78-55.15t4.24-31.46c.94-7.3,1.52-12.37,1.77-15.2s.35-5.18.35-7.07a50.93,50.93,0,0,0-2.83-18,81.69,81.69,0,0,0-8.48-15.91q-9.2-12.72-18.38-23.68t-18.74-21.92q-9.54-10.95-19.44-23.33t-20.5-27.93a60,60,0,0,1-9.55-19.08,78.39,78.39,0,0,1-2.47-20.51c0-2.83.11-6,.35-9.54s.82-9.55,1.77-18,2.47-20.15,4.59-35,5.06-35,8.84-60.45q13.43-96.13,103.93-96.15,41,0,59,17t18,51.61a194.7,194.7,0,0,1-2.12,27.57l-14.85,106h-50.19l14.14-99c.46-2.82.82-5.65,1.06-8.48s.35-5.41.35-7.78q0-14.84-6.71-23.68t-24.4-8.84q-37.47,0-43.83,41.71-4.95,35.37-7.78,55.5t-4.24,30.76q-1.42,10.61-1.77,14.14c-.24,2.36-.35,4.24-.35,5.65a38.34,38.34,0,0,0,2.12,13.44,60,60,0,0,0,6.36,12,358,358,0,0,0,36.77,47.37,465.74,465.74,0,0,1,38.18,47.36,90.36,90.36,0,0,1,12.37,24q3.87,12,3.89,28.28c0,2.83-.12,6.26-.36,10.25s-.95,10.26-2.12,18.74-2.83,20.15-4.95,35-4.84,34.76-8.13,59.74q-6.36,46.66-30.75,71.41t-73.18,24.74q-41,0-60.09-18.38T2408,2221.69a143.19,143.19,0,0,1,2.12-23.33l17.68-123.73h51.61l-16.26,115.95c-.48,2.83-.83,5.55-1.07,8.13s-.35,5.07-.35,7.43q0,16.26,7.07,25.8t24.75,9.55q20.49,0,30.4-11T2537.4,2198.36Z" transform="translate(-609.07 -1544.42)"/><path class="cls-3" d="M2724.75,2291a51.71,51.71,0,0,1-10.6,2.47,86.33,86.33,0,0,1-12.73,1.06q-33.93,0-49.84-18t-15.91-50.55v-11a44.88,44.88,0,0,1,1.42-11l43.83-310.37h-20.5l5.65-43.13h20.51l19.79-138.57h48.79l-19.8,138.57h49.49l-5.66,43.13H2729.7L2685.87,2204c-.48,2.83-.83,5.55-1.06,8.13s-.35,5.08-.35,7.43q0,18.39,8.83,25.8t27.93,7.43h4.59a14.22,14.22,0,0,0,4.6-.71Z" transform="translate(-609.07 -1544.42)"/><path class="cls-3" d="M2760.09,2288.15l60.81-437.64h41a234.14,234.14,0,0,1-2.12,31.82q12-19.1,26.16-27.57a60.59,60.59,0,0,1,31.82-8.49q9.18,0,14.84,2.83l-7.77,54.44a21.07,21.07,0,0,0-9.55-3.89,66.86,66.86,0,0,0-11.66-1.06,55.3,55.3,0,0,0-23,5.3q-11.67,5.31-20.86,20.86l-50.9,363.4Z" transform="translate(-609.07 -1544.42)"/><path class="cls-3" d="M3032.29,2110h46l-13.44,96.16q-12.72,88.38-91.2,88.37-65.06,0-65-65a142.08,142.08,0,0,1,2.12-23.33l38.18-272.91q6.36-44.54,29-67.16t59.39-22.63q67.16,0,67.17,67.17v11.31a46.49,46.49,0,0,1-1.42,11.31l-19.79,140.7H2974.32l-18.38,132.21q-.72,3.54-1.06,6.36a43.09,43.09,0,0,0-.36,5.65q0,26.88,26.16,26.87,33.22,0,38.18-38.88ZM3057,1933.23a22.34,22.34,0,0,0,.7-5.3v-4.6q0-29-27.57-29-31.12,0-36.06,38.88l-14.84,105.35h62.92Z" transform="translate(-609.07 -1544.42)"/><path class="cls-3" d="M3230.25,2110h46l-13.44,96.16q-12.72,88.38-91.2,88.37-65.06,0-65-65a142.08,142.08,0,0,1,2.12-23.33l38.18-272.91q6.36-44.54,29-67.16t59.39-22.63q67.15,0,67.17,67.17v11.31a46.49,46.49,0,0,1-1.42,11.31l-19.79,140.7H3172.28l-18.38,132.21c-.48,2.36-.83,4.48-1.07,6.36a44.87,44.87,0,0,0-.35,5.65q0,26.88,26.16,26.87,33.22,0,38.18-38.88ZM3255,1933.23a22.34,22.34,0,0,0,.7-5.3v-4.6q0-29-27.57-29-31.12,0-36.06,38.88l-14.84,105.35h62.92Z" transform="translate(-609.07 -1544.42)"/><path class="cls-3" d="M3399.93,2291a51.88,51.88,0,0,1-10.6,2.47,86.33,86.33,0,0,1-12.73,1.06q-33.95,0-49.84-18t-15.91-50.55v-11a44.86,44.86,0,0,1,1.41-11l43.84-310.37h-20.51l5.66-43.13h20.5l19.8-138.57h48.78l-19.79,138.57H3460l-5.66,43.13h-49.49L3361,2204c-.47,2.83-.82,5.55-1.06,8.13s-.35,5.08-.35,7.43q0,18.39,8.84,25.8t27.93,7.43H3401a14.26,14.26,0,0,0,4.6-.71Z" transform="translate(-609.07 -1544.42)"/></g><path class="cls-4" d="M2256.31,2381.67l-3.59,25.53H2116.93l-3.73,26.49h127.42l-3.59,25.53H2109.62l-3.78,26.88h135.79l-3.59,25.53H2071.66l18.27-130Z" transform="translate(-609.07 -1544.42)"/><path class="cls-4" d="M2243.11,2511.63l80.48-65.27L2262,2381.67h42.86l42.77,45,55.42-45h42.87l-79.62,64.69,61.94,65.27h-42.86L2342.06,2466,2286,2511.63Z" transform="translate(-609.07 -1544.42)"/><path class="cls-4" d="M2594.14,2381.67c23.19,0,35.08,16.56,32.32,36.24l-8.08,57.48c-2.77,19.68-19.32,36.24-42.5,36.24H2467.17c-23.19,0-34.89-16.56-32.12-36.24l8.08-57.48c2.76-19.68,19.12-36.24,42.3-36.24Zm-128.45,94.69c-.93,6.63,1.36,9.74,8.38,9.74h102.47c6.82,0,10-3.11,10.92-9.74l8.38-59.62c.9-6.43-1.39-9.54-8.21-9.54H2485.16c-7,0-10.16,2.92-11.09,9.54Z" transform="translate(-609.07 -1544.42)"/><path class="cls-4" d="M2814.88,2381.67l-3.58,25.53H2739l-14.68,104.43h-30.59l14.68-104.43h-72.28l3.59-25.53Z" transform="translate(-609.07 -1544.42)"/><path class="cls-4" d="M2855.61,2381.67l-18.27,130h-30.78l18.26-130Z" transform="translate(-609.07 -1544.42)"/><path class="cls-4" d="M2868.05,2417.91c2.76-19.68,19.12-36.24,42.3-36.24h108.71c19.88,0,34.38,13.25,32.53,33.32-.32,3.7-.84,7.4-1.42,11.49l-.35,2.54H3019l.36-2.54c.36-2.53.91-5.06,1.07-7.59,1-7.21.86-11.69-7.91-11.69H2910.08c-7,0-10.16,2.92-11.09,9.54l-8.37,59.62c-.94,6.63,1.35,9.74,8.37,9.74h102.47c8.77,0,10.24-4.87,11.22-11.88.55-2.53.71-5.07,1-7.41l.39-2.72h30.78l-1.59,11.3c-2.76,19.68-19.32,36.24-42.5,36.24H2892.09c-23.19,0-34.88-16.56-32.12-36.24Z" transform="translate(-609.07 -1544.42)"/><path class="cls-4" d="M3200.64,2381.67c22,0,34.13,15,32.65,33.9l-.39,2.73h-30.39l.16-2.53c.43-5.85-2.3-8.57-8.53-8.57h-88.65c-7.6,0-9.51,2.53-11,9.15-.3,2.15-.63,4.48-.93,6.63-.93,6.62,1.36,9.74,8.37,9.74h95.47c23.18,0,35.1,16.37,32.31,36.24-.93,6.62-2,14-5.88,21a42.4,42.4,0,0,1-37.52,21.63H3087.5c-23.18,0-34.88-16.56-32.12-36.24.2-1.37.58-2.73.77-4.09l.53-2.34h30.39l-.36,2.53c-.65,4.68-1.17,8.38-.17,10.91.68,2.14,2.41,3.7,7.86,3.7h92.35c9,0,10.7-5.45,11.74-12.86.19-2.72.55-5.26.9-7.79.63-4.48-3.08-7.21-8.73-7.21H3095c-15.58,0-27.35-7.79-31.3-21.24-1.8-6.62-1.14-12.66-.24-19.09,2.77-19.68,19.32-36.24,42.31-36.24Z" transform="translate(-609.07 -1544.42)"/><circle class="cls-4" cx="590" cy="590" r="574.05"/><path class="cls-4" d="M1199.06,2724.42a588.15,588.15,0,1,1,229.67-46.37A586.25,586.25,0,0,1,1199.06,2724.42Zm0-1148.1a556.24,556.24,0,1,0,217.24,43.85A554.77,554.77,0,0,0,1199.06,1576.32Z" transform="translate(-609.07 -1544.42)"/><path class="cls-5" d="M1773.43,2134.43c0,317.39-257.29,574.68-574.68,574.68l-4.31,0q-2.62,0-5.22-.06l-3.94-.08q-4.46-.09-8.89-.27l-3.22-.13c-1.52-.06-3-.14-4.56-.22-1.88-.1-3.76-.2-5.63-.32q-3.75-.23-7.48-.5l-3.09-.24q-5.65-.45-11.26-1l-3.67-.37c-1.55-.16-3.1-.34-4.64-.51l-3.76-.44-3.52-.44-3.6-.47-3.58-.49a1.9,1.9,0,0,1-.25,0c-1.25-.17-2.49-.36-3.74-.54-1.51-.22-3-.45-4.54-.69l-4.91-.78c-1.42-.23-2.85-.47-4.27-.72q-12.6-2.16-25-4.88c-3.39-.74-6.78-1.5-10.15-2.31L1063,2693q-5.68-1.38-11.35-2.87l-3.44-.92-2.75-.75q-7.35-2-14.63-4.25l-2.33-.72c-3.66-1.12-7.31-2.3-10.95-3.51l-3.16-1.06q-6.78-2.28-13.48-4.75l-3.09-1.14-3.29-1.24-3.51-1.34L984.9,2668c-3.3-1.33-6.57-2.67-9.84-4.06l-3.22-1.37-3.21-1.4c-1.36-.59-2.71-1.18-4.06-1.79-1.84-.82-3.67-1.66-5.5-2.49l-3.17-1.47-3.15-1.48c-2.11-1-4.2-2-6.29-3l-3.12-1.53-2.33-1.17q-2.37-1.18-4.74-2.41L931,2643l-2.19-1.16c-4.38-2.34-8.73-4.72-13-7.18-1-.57-2-1.14-3-1.72l-3-1.74c-2-1.16-4-2.34-6-3.53l-3-1.79c-.9-.54-1.79-1.09-2.68-1.64q-4.56-2.8-9.07-5.7c-1-.62-2-1.24-2.91-1.87-3.38-2.2-6.73-4.42-10.06-6.69-1-.68-2-1.37-3-2.06a1.88,1.88,0,0,1-.23-.16l-3.55-2.47c-1.06-.74-2.12-1.48-3.17-2.23s-1.88-1.34-2.81-2l-2.6-1.88-.43-.31c-.86-.63-1.71-1.25-2.55-1.88l-.08-.05c-1.82-1.35-3.65-2.72-5.46-4.09q-2.25-1.7-4.47-3.42c-1.13-.87-2.25-1.74-3.36-2.62q-5.23-4.09-10.36-8.32l-3.41-2.82c-1.36-1.14-2.74-2.3-4.09-3.45l-2.37-2c-1.34-1.15-2.69-2.32-4-3.49l-2.94-2.6c-1.21-1.07-2.4-2.14-3.6-3.22-2-1.8-4-3.62-5.94-5.44-.2-.2-.42-.39-.63-.59l-2.89-2.72-3.2-3c-.88-.84-1.75-1.68-2.62-2.54-.32-.29-.63-.6-1-.91-2-1.94-3.95-3.89-5.9-5.85q-1.57-1.58-3.12-3.15-3.09-3.16-6.15-6.37t-6-6.47q-3-3.26-6-6.55-4.5-5-8.88-10.17c-.82-1-1.64-1.93-2.46-2.91-.18-.2-.36-.42-.53-.63-.86-1-1.72-2.05-2.57-3.08q-5.7-6.89-11.18-13.95c-.87-1.13-1.75-2.26-2.61-3.39l-2.68-3.54c-1-1.35-2-2.72-3.05-4.08q-2.42-3.28-4.8-6.6l-2.6-3.66-2.54-3.63q-2.64-3.81-5.2-7.64c-.77-1.13-1.52-2.26-2.27-3.4-1.57-2.37-3.12-4.77-4.64-7.16l-.2-.3c-.28-.43-.55-.87-.82-1.3a33.79,33.79,0,0,1,6.89-42.87l3.13-2.41,853-654.43.82-.63.18-.13a33.78,33.78,0,0,1,44.48,3.89c.37.39.74.79,1.09,1.2a574.75,574.75,0,0,1,75.44,103.37c.68,1.2,1.36,2.39,2,3.6.81,1.43,1.61,2.87,2.4,4.3l2.17,4q3.22,6,6.33,12.06c.69,1.35,1.38,2.7,2,4.06s1.35,2.71,2,4.07,1.34,2.73,2,4.09,1.31,2.74,2,4.12,1.3,2.74,1.93,4.12,1.14,2.48,1.7,3.72c.06.14.12.29.19.43.63,1.39,1.24,2.78,1.86,4.16s1.22,2.79,1.82,4.18,1.16,2.69,1.73,4c0,.06,0,.11.07.16.59,1.4,1.18,2.81,1.76,4.22.49,1.17,1,2.35,1.44,3.53.81,2,1.61,4,2.39,6l1.26,3.25c.4,1,.79,2.05,1.17,3.07.32.83.63,1.66.94,2.5q2.29,6.12,4.44,12.3l1.09,3.19c.63,1.83,1.24,3.66,1.85,5.5.38,1.16.77,2.33,1.14,3.5s.69,2.14,1,3.2c.23.73.46,1.46.7,2.2.37,1.22.75,2.43,1.11,3.64.44,1.44.87,2.87,1.29,4.3,0,.15.08.28.12.41.39,1.3.76,2.6,1.14,3.9,0,.14.08.26.11.4.36,1.24.71,2.49,1.06,3.74s.77,2.81,1.16,4.22c.31,1.15.61,2.29.91,3.44.27,1,.53,2,.78,3,.12.42.23.84.33,1.27.23.87.45,1.74.66,2.62,1,3.82,1.89,7.65,2.76,11.49.19.79.36,1.58.54,2.38.26,1.16.52,2.32.77,3.49.15.67.3,1.34.44,2,.2.92.39,1.84.58,2.77l.6,2.91.57,2.81q.69,3.51,1.35,7c.14.76.27,1.51.41,2.27q.32,1.68.6,3.36c.27,1.54.53,3.09.79,4.63.21,1.31.43,2.62.64,3.92.12.82.25,1.63.38,2.44.15,1,.3,2,.45,2.94.23,1.56.46,3.11.67,4.67s.4,2.83.59,4.25c.12.9.24,1.8.35,2.71s.26,2,.38,3,.25,2,.37,3l.24,2c.27,2.4.53,4.82.78,7.22a1.09,1.09,0,0,1,0,.18l.24,2.38c.11,1.14.22,2.27.32,3.41.15,1.58.28,3.17.42,4.75.11,1.36.21,2.72.32,4.08.08,1.06.16,2.12.23,3.17,0,.12,0,.25,0,.38.07.92.13,1.86.19,2.78,0,.71.09,1.42.13,2.14s.1,1.5.14,2.25c.15,2.54.27,5.09.39,7.64l.12,3.16c0,.27,0,.54,0,.81,0,1,.07,2,.09,2.95,0,1.45.1,2.9.13,4.35l.09,4.3c0,.32,0,.65,0,1,0,1.4,0,2.81.05,4.22C1773.43,2131.19,1773.43,2132.81,1773.43,2134.43Z" transform="translate(-609.07 -1544.42)"/><g class="cls-2"><path class="cls-3" d="M1685.4,1838.5a33.75,33.75,0,0,1-14.05,27.43l-4.7,2.83-914.7,572-2.39,1.44a34.11,34.11,0,0,1-44.38-10.37c-1.19-2.09-2.36-4.2-3.52-6.31l0,0c-38.56-70.62-70.34-166.2-76.19-250.83-24-346.75,264.59-636.41,611.42-613.69a575.25,575.25,0,0,1,442.27,257.92s0,0,0,0c.48.72,1,1.45,1.43,2.18A33.66,33.66,0,0,1,1685.4,1838.5Z" transform="translate(-609.07 -1544.42)"/></g><path class="cls-4" d="M1671.74,2461.62l-2.64,3.76h0c-103.86,146-275.71,245.65-468.52,245.65-193.24,0-345.37-64.58-449.18-211.12-3.88-5.48-11.53-18.79-15.22-24.41,7.79-.77,43-2.75,43-2.75,767.71-67.33,335.75-267.15,335.75-267.15-2.38-1.37-4.67-2.82-7-4.06-352.17-185.45,16.59-290.77,16.59-290.77l519.58-142.1c-573.32,163.1-598.34,264.88-401.94,355.92,17,7.85,28.84,12.48,28.84,12.48C1687.74,2318.31,1671.77,2461.53,1671.74,2461.62Z" transform="translate(-609.07 -1544.42)"/></svg>