<?xml version="1.0" encoding="UTF-8" standalone="no"?><!-- Generator: Gravit.io --><svg xmlns="http://www.w3.org/2000/svg" xmlns:xlink="http://www.w3.org/1999/xlink" style="isolation:isolate" viewBox="0 0 198 24" width="198pt" height="24pt"><defs><clipPath id="_clipPath_goebcqyn9iHQbF2tgBGBUy5uGhSyGxPf"><rect width="198" height="24"/></clipPath></defs><g clip-path="url(#_clipPath_goebcqyn9iHQbF2tgBGBUy5uGhSyGxPf)"><rect width="198" height="24" style="fill:rgb(0,0,0)" fill-opacity="0"/><g><path d=" M 33 1 C 35.209 1 37 2.791 37 5 L 37 19 C 37 21.209 35.209 23 33 23 L 5 23 C 2.791 23 1 21.209 1 19 L 1 5 C 1 2.791 2.791 1 5 1 L 33 1 Z  M 33 0 L 5 0 C 2.239 0 0 2.239 0 5 L 0 19 C 0 21.761 2.239 24 5 24 L 33 24 C 35.761 24 38 21.761 38 19 L 38 5 C 38 2.239 35.761 0 33 0 Z " fill="rgb(255,255,255)"/><path d=" M 15.76 8.56 L 12.89 15.45 L 11 15.45 L 9.61 10 C 9.587 9.737 9.428 9.505 9.19 9.39 C 8.636 9.125 8.051 8.926 7.45 8.8 L 7.45 8.6 L 10.45 8.6 C 10.86 8.605 11.207 8.905 11.27 9.31 L 12.01 13.31 L 13.85 8.62 L 15.76 8.56 Z  M 23.09 13.2 C 23.09 11.39 20.59 11.29 20.61 10.47 C 20.61 10.23 20.85 9.96 21.36 9.9 C 21.96 9.839 22.565 9.943 23.11 10.2 L 23.42 8.74 C 22.888 8.545 22.326 8.444 21.76 8.44 C 20.01 8.44 18.76 9.37 18.76 10.72 C 18.76 11.72 19.64 12.26 20.31 12.59 C 20.98 12.92 21.23 13.15 21.23 13.45 C 21.23 13.91 20.68 14.11 20.17 14.12 C 19.536 14.137 18.909 13.989 18.35 13.69 L 18 15.2 C 18.638 15.445 19.317 15.567 20 15.56 C 21.86 15.56 23.07 14.64 23.08 13.2 M 27.7 15.45 L 29.33 15.45 L 27.91 8.56 L 26.41 8.56 C 26.077 8.56 25.776 8.761 25.65 9.07 L 23 15.45 L 24.86 15.45 L 25.22 14.45 L 27.49 14.45 L 27.7 15.45 Z  M 25.7 13.01 L 26.64 10.43 L 27.2 13 L 25.7 13.01 Z  M 18.26 8.56 L 16.8 15.45 L 15.06 15.45 L 16.52 8.56 L 18.26 8.56 Z " fill="rgb(255,255,255)"/></g><g><path d=" M 73 1 C 75.209 1 77 2.791 77 5 L 77 19 C 77 21.209 75.209 23 73 23 L 45 23 C 42.791 23 41 21.209 41 19 L 41 5 C 41 2.791 42.791 1 45 1 L 73 1 Z  M 73 0 L 45 0 C 42.239 0 40 2.239 40 5 L 40 19 C 40 21.761 42.239 24 45 24 L 73 24 C 75.761 24 78 21.761 78 19 L 78 5 C 78 2.239 75.761 0 73 0 Z " fill="rgb(255,255,255)"/><path d=" M 58.11 8.08 C 56.132 6.726 53.455 7.059 51.868 8.855 C 50.281 10.651 50.281 13.349 51.868 15.145 C 53.455 16.941 56.132 17.274 58.11 15.92 C 56.136 13.679 56.136 10.321 58.11 8.08 Z " fill="rgb(255,255,255)"/><circle vector-effect="non-scaling-stroke" cx="62.56" cy="12" r="4.75" fill="rgb(255,255,255)"/></g><g><path d=" M 113 1 C 115.209 1 117 2.791 117 5 L 117 19 C 117 21.209 115.209 23 113 23 L 85 23 C 82.791 23 81 21.209 81 19 L 81 5 C 81 2.791 82.791 1 85 1 L 113 1 Z  M 113 0 L 85 0 C 82.239 0 80 2.239 80 5 L 80 19 C 80 21.761 82.239 24 85 24 L 113 24 C 115.761 24 118 21.761 118 19 L 118 5 C 118 2.239 115.761 0 113 0 Z " fill="rgb(255,255,255)"/><g><path d=" M 101.742 13.86 L 100.917 13.86 L 100.917 14.596 L 101.731 14.596 C 101.861 14.596 101.973 14.592 102.062 14.528 C 102.148 14.468 102.2 14.354 102.2 14.214 C 102.2 14.074 102.148 13.972 102.061 13.919 C 101.98 13.863 101.86 13.859 101.741 13.859 L 101.742 13.86 Z  M 99.196 8.885 C 99.282 8.832 99.334 8.716 99.334 8.574 C 99.334 8.433 99.28 8.333 99.194 8.285 C 99.114 8.233 98.992 8.224 98.876 8.224 L 98.051 8.224 L 98.051 8.952 L 98.865 8.952 C 98.995 8.952 99.103 8.95 99.196 8.885 Z  M 104.534 8.099 L 104.074 9.406 L 104.998 9.406 L 104.534 8.099 Z " fill="rgb(255,255,255)"/><path d=" M 111.152 14.334 C 111.29 14.224 111.368 14.056 111.364 13.88 L 111.364 13.182 C 111.364 12.883 111.157 12.641 110.902 12.641 L 109.559 12.641 C 109.141 12.641 108.828 12.784 108.599 13.002 C 108.534 12.792 108.368 12.641 108.166 12.641 L 106.825 12.641 C 106.456 12.641 106.164 12.747 105.944 12.923 C 105.864 12.756 105.718 12.641 105.544 12.641 L 103.311 12.641 C 103.131 12.641 102.979 12.763 102.903 12.939 C 102.871 12.914 102.848 12.883 102.813 12.859 C 102.49 12.657 102.146 12.641 101.79 12.641 L 100.244 12.641 C 100.063 12.641 99.911 12.765 99.834 12.941 C 99.6 12.762 99.271 12.641 98.802 12.641 L 96.663 12.641 C 96.529 12.643 96.404 12.706 96.323 12.814 L 95.817 13.453 L 95.331 12.819 C 95.252 12.708 95.124 12.642 94.987 12.639 L 92.294 12.639 C 92.039 12.639 91.832 12.882 91.832 13.182 L 91.832 16.459 C 91.832 16.758 92.039 17.001 92.294 17.001 L 94.946 17.001 C 95.08 16.998 95.206 16.934 95.286 16.827 L 95.796 16.18 L 96.281 16.818 C 96.362 16.93 96.49 16.997 96.628 17 L 97.928 17 C 98.184 17 98.392 16.758 98.392 16.459 L 98.392 15.9 L 98.764 15.9 C 99.216 15.9 99.544 15.791 99.781 15.626 L 99.781 16.459 C 99.781 16.757 99.988 16.999 100.244 16.999 L 100.917 16.999 C 101.172 16.999 101.379 16.758 101.379 16.459 L 101.379 15.801 L 101.632 15.801 C 101.693 15.801 101.737 15.804 101.768 15.805 C 101.771 15.863 101.771 15.935 101.77 15.981 L 101.77 16.457 C 101.77 16.755 101.976 16.997 102.233 16.997 L 102.904 16.997 C 102.976 16.996 103.047 16.975 103.108 16.938 C 103.169 16.974 103.238 16.997 103.312 16.997 L 105.546 16.997 C 105.619 16.997 105.686 16.974 105.746 16.939 C 105.807 16.977 105.877 16.997 105.948 16.998 L 107.251 16.998 C 107.667 16.998 108.004 16.879 108.258 16.668 C 108.328 16.862 108.492 16.998 108.683 16.998 L 109.99 16.998 C 110.936 16.998 111.5 16.408 111.5 15.424 C 111.5 14.966 111.396 14.625 111.166 14.349 L 111.152 14.333 L 111.152 14.334 Z  M 98.764 15.36 L 97.929 15.36 L 97.929 16.46 L 96.629 16.46 L 95.803 15.374 L 94.946 16.46 L 92.294 16.46 L 92.294 13.182 L 94.987 13.182 L 95.811 14.255 L 96.663 13.182 L 98.805 13.182 C 99.335 13.182 99.93 13.356 99.93 14.263 C 99.93 15.173 99.35 15.36 98.764 15.36 Z  M 102.794 15.211 C 102.889 15.371 102.902 15.52 102.904 15.809 L 102.904 16.459 L 102.233 16.459 L 102.233 16.049 C 102.233 15.852 102.249 15.559 102.125 15.407 C 102.026 15.29 101.878 15.262 101.633 15.262 L 100.918 15.262 L 100.918 16.458 L 100.246 16.458 L 100.246 13.181 L 101.792 13.181 C 102.13 13.181 102.377 13.198 102.598 13.335 C 102.808 13.485 102.941 13.689 102.941 14.063 C 102.941 14.588 102.641 14.854 102.466 14.936 C 102.6 14.994 102.714 15.09 102.793 15.211 L 102.794 15.211 Z  M 105.546 13.859 L 103.978 13.859 L 103.978 14.455 L 105.508 14.455 L 105.508 15.124 L 103.978 15.124 L 103.978 15.775 L 105.546 15.779 L 105.546 16.46 L 103.312 16.46 L 103.312 13.18 L 105.546 13.18 L 105.546 13.859 L 105.546 13.859 Z  M 107.253 16.457 L 105.95 16.457 L 105.95 15.754 L 107.249 15.754 C 107.375 15.754 107.465 15.735 107.522 15.674 C 107.574 15.615 107.602 15.539 107.6 15.461 C 107.603 15.38 107.574 15.302 107.519 15.244 C 107.468 15.194 107.398 15.171 107.28 15.171 C 106.655 15.147 105.87 15.194 105.87 14.158 C 105.87 13.681 106.125 13.182 106.828 13.182 L 108.169 13.182 L 108.169 13.879 L 106.94 13.879 C 106.818 13.879 106.739 13.885 106.672 13.939 C 106.598 13.992 106.571 14.071 106.571 14.175 C 106.571 14.299 106.633 14.382 106.717 14.419 C 106.801 14.448 106.89 14.461 106.978 14.456 L 107.338 14.468 C 107.701 14.478 107.95 14.551 108.104 14.73 C 108.234 14.887 108.305 15.087 108.305 15.424 C 108.305 16.128 107.928 16.458 107.253 16.457 Z  M 109.989 16.457 L 108.685 16.457 L 108.685 15.754 L 109.983 15.754 C 110.11 15.754 110.2 15.735 110.257 15.674 C 110.309 15.615 110.336 15.539 110.335 15.461 C 110.338 15.38 110.309 15.302 110.254 15.244 C 110.201 15.194 110.132 15.171 110.015 15.171 C 109.389 15.147 108.605 15.194 108.605 14.158 C 108.605 13.681 108.86 13.182 109.562 13.182 L 110.904 13.182 L 110.904 13.879 L 109.676 13.879 C 109.554 13.879 109.474 13.885 109.407 13.939 C 109.333 13.992 109.307 14.071 109.307 14.175 C 109.307 14.299 109.369 14.382 109.452 14.419 C 109.536 14.448 109.624 14.46 109.712 14.456 L 110.073 14.468 C 110.436 14.478 110.686 14.551 110.839 14.73 C 110.971 14.887 111.04 15.087 111.04 15.424 C 111.04 16.128 110.664 16.458 109.989 16.457 Z " fill="rgb(255,255,255)"/><path d=" M 98.802 13.86 L 97.929 13.86 L 97.929 14.694 L 98.795 14.694 C 99.052 14.694 99.211 14.545 99.211 14.263 C 99.211 13.976 99.044 13.86 98.801 13.86 L 98.802 13.86 Z  M 97.262 16.162 L 97.262 13.534 L 96.234 14.826 L 97.262 16.162 Z  M 88.187 9.405 L 89.1 9.405 L 88.643 8.099 L 88.187 9.405 Z  M 92.963 13.86 L 92.963 14.456 L 94.432 14.456 L 94.432 15.125 L 92.962 15.125 L 92.962 15.778 L 94.608 15.778 L 95.373 14.814 L 94.641 13.86 L 92.963 13.86 Z " fill="rgb(255,255,255)"/><path d=" M 92.523 11.36 C 92.706 11.36 92.871 11.234 92.945 11.039 L 93.035 10.807 L 93.035 10.82 C 93.035 11.119 93.241 11.36 93.496 11.36 L 94.183 11.36 C 94.275 11.356 94.363 11.322 94.433 11.263 C 94.503 11.322 94.591 11.356 94.682 11.36 L 96.918 11.36 C 97.002 11.357 97.083 11.328 97.149 11.277 C 97.219 11.325 97.295 11.36 97.382 11.36 L 98.052 11.36 C 98.307 11.36 98.514 11.118 98.514 10.82 L 98.514 10.169 L 98.77 10.169 C 98.828 10.169 98.869 10.17 98.9 10.173 C 98.903 10.228 98.902 10.294 98.902 10.338 L 98.901 10.41 L 98.903 10.824 C 98.905 11.121 99.112 11.359 99.366 11.359 L 100.042 11.359 C 100.116 11.358 100.188 11.335 100.249 11.295 C 100.312 11.335 100.385 11.358 100.459 11.359 L 101.142 11.359 C 101.366 11.359 101.544 11.17 101.587 10.924 C 101.967 11.297 102.501 11.359 102.799 11.359 L 103.583 11.359 C 103.77 11.359 103.94 11.225 104.01 11.022 L 104.146 10.628 L 104.918 10.628 L 105.059 11.026 C 105.132 11.228 105.3 11.359 105.486 11.359 L 106.849 11.359 C 107.104 11.359 107.312 11.118 107.312 10.818 L 107.312 10.301 L 107.722 11.098 C 107.795 11.252 107.949 11.353 108.119 11.358 L 109.067 11.358 C 109.322 11.358 109.53 11.117 109.53 10.817 L 109.53 7.54 C 109.53 7.241 109.323 6.999 109.067 6.999 L 108.383 6.999 C 108.127 6.999 107.919 7.241 107.919 7.54 L 107.919 7.878 L 107.601 7.261 C 107.529 7.107 107.376 7.006 107.205 7 L 106.185 7 C 105.93 7 105.723 7.243 105.723 7.54 L 105.723 8 L 105.477 7.327 C 105.403 7.129 105.237 7 105.052 7 L 104.05 7 C 103.948 7.001 103.85 7.039 103.774 7.107 C 103.698 7.039 103.6 7.001 103.498 7 L 102.85 7 C 102.3 7 101.893 7.156 101.593 7.461 C 101.559 7.201 101.376 7 101.144 7 L 100.461 7 C 100.279 7 100.124 7.126 100.049 7.304 C 100.021 7.281 99.998 7.251 99.966 7.23 C 99.651 7.017 99.322 6.999 98.923 6.999 L 97.383 6.999 C 97.299 7.003 97.219 7.032 97.152 7.083 C 97.086 7.032 97.004 7.003 96.92 7 L 94.684 7 C 94.592 7.004 94.504 7.038 94.434 7.097 C 94.364 7.038 94.276 7.004 94.184 7 L 93.069 7 C 92.884 7 92.716 7.131 92.644 7.33 L 92.246 8.426 L 91.808 7.314 C 91.732 7.123 91.568 7 91.388 7 L 90.294 7 C 90.038 7 89.831 7.243 89.831 7.54 L 89.831 8.011 L 89.581 7.326 C 89.506 7.131 89.34 7 89.154 7 L 88.16 7 C 87.975 7 87.807 7.131 87.735 7.328 L 86.537 10.606 C 86.476 10.773 86.49 10.959 86.575 11.115 C 86.65 11.261 86.798 11.354 86.961 11.359 L 87.689 11.359 C 87.875 11.359 88.044 11.228 88.115 11.026 L 88.256 10.627 L 89.032 10.627 L 89.172 11.023 C 89.242 11.226 89.412 11.359 89.599 11.359 L 90.961 11.359 C 91.216 11.359 91.423 11.116 91.423 10.819 L 91.423 10.806 L 91.511 11.038 C 91.585 11.234 91.751 11.361 91.933 11.361 L 92.522 11.361 L 92.523 11.36 Z  M 101.83 7.924 C 102.046 7.662 102.385 7.542 102.847 7.542 L 103.495 7.542 L 103.495 8.244 L 102.86 8.244 C 102.615 8.244 102.477 8.287 102.345 8.439 C 102.23 8.577 102.153 8.837 102.153 9.182 C 102.153 9.532 102.211 9.785 102.337 9.951 C 102.44 10.081 102.629 10.12 102.804 10.12 L 103.104 10.12 L 104.049 7.543 L 105.052 7.543 L 106.186 10.643 L 106.186 7.543 L 107.205 7.543 L 108.383 9.826 L 108.383 7.543 L 109.067 7.543 L 109.067 10.82 L 108.119 10.82 L 106.849 8.36 L 106.849 10.82 L 105.486 10.82 L 105.226 10.09 L 103.835 10.09 L 103.583 10.82 L 102.8 10.82 C 102.474 10.82 102.062 10.735 101.83 10.457 C 101.594 10.179 101.47 9.802 101.47 9.207 C 101.47 8.72 101.544 8.276 101.831 7.925 L 101.83 7.924 Z  M 103.09 8.785 L 102.8 9.578 C 102.756 9.58 102.712 9.575 102.669 9.563 C 102.646 9.513 102.616 9.406 102.616 9.181 C 102.616 8.954 102.663 8.836 102.669 8.826 C 102.688 8.805 102.704 8.786 102.855 8.786 L 103.09 8.786 L 103.09 8.785 Z  M 100.459 7.542 L 101.142 7.542 L 101.142 10.819 L 100.459 10.819 L 100.459 7.542 Z  M 97.382 7.542 L 98.922 7.542 C 99.263 7.542 99.515 7.552 99.732 7.698 C 99.943 7.845 100.071 8.058 100.071 8.424 C 100.071 8.946 99.773 9.217 99.599 9.298 C 99.746 9.363 99.871 9.478 99.93 9.574 C 100.025 9.737 100.042 9.882 100.042 10.174 L 100.042 10.819 L 99.366 10.819 L 99.363 10.405 C 99.363 10.208 99.379 9.925 99.258 9.767 C 99.16 9.652 99.011 9.627 98.77 9.627 L 98.052 9.627 L 98.052 10.819 L 97.382 10.819 L 97.382 7.542 Z  M 94.682 7.542 L 96.917 7.542 L 96.917 8.224 L 95.35 8.224 L 95.35 8.814 L 96.88 8.814 L 96.88 9.487 L 95.35 9.487 L 95.35 10.141 L 96.917 10.141 L 96.917 10.82 L 94.681 10.82 L 94.681 7.543 L 94.682 7.542 Z  M 90.962 8.25 L 90.962 10.821 L 89.6 10.821 L 89.342 10.089 L 87.95 10.089 L 87.69 10.82 L 86.963 10.82 L 88.162 7.543 L 89.156 7.543 L 90.295 10.646 L 90.295 7.543 L 91.388 7.543 L 92.264 9.766 L 93.068 7.543 L 94.184 7.543 L 94.184 10.82 L 93.498 10.82 L 93.495 8.254 L 92.525 10.82 L 91.935 10.82 L 90.963 8.251 L 90.962 8.25 Z " fill="rgb(255,255,255)"/></g></g><g><path d=" M 153 1 C 155.209 1 157 2.791 157 5 L 157 19 C 157 21.209 155.209 23 153 23 L 125 23 C 122.791 23 121 21.209 121 19 L 121 5 C 121 2.791 122.791 1 125 1 L 153 1 Z  M 153 0 L 125 0 C 122.239 0 120 2.239 120 5 L 120 19 C 120 21.761 122.239 24 125 24 L 153 24 C 155.761 24 158 21.761 158 19 L 158 5 C 158 2.239 155.761 0 153 0 Z " fill="rgb(255,255,255)"/><path d=" M 131.66 8.47 C 131.388 8.822 130.965 9.023 130.52 9.01 C 130.496 8.578 130.643 8.154 130.93 7.83 C 131.217 7.497 131.622 7.289 132.06 7.25 C 132.089 7.693 131.946 8.13 131.66 8.47 Z  M 132.05 9.1 C 131.42 9.1 130.89 9.46 130.59 9.46 C 130.29 9.46 129.83 9.12 129.33 9.13 C 128.672 9.143 128.07 9.505 127.75 10.08 C 127.235 11.36 127.417 12.815 128.23 13.93 C 128.55 14.4 128.94 14.93 129.44 14.93 C 129.94 14.93 130.11 14.62 130.69 14.62 C 131.27 14.62 131.44 14.93 131.95 14.92 C 132.46 14.91 132.8 14.45 133.12 13.98 C 133.35 13.649 133.529 13.285 133.65 12.9 C 133.041 12.625 132.65 12.018 132.65 11.35 C 132.659 10.759 132.968 10.213 133.47 9.9 C 133.149 9.44 132.63 9.159 132.07 9.14 M 135.7 7.83 L 135.7 14.83 L 136.8 14.83 L 136.8 12.42 L 138.31 12.42 C 138.938 12.454 139.551 12.222 139.999 11.78 C 140.446 11.338 140.686 10.728 140.66 10.1 C 140.692 9.478 140.459 8.872 140.019 8.431 C 139.578 7.991 138.972 7.758 138.35 7.79 L 135.7 7.83 Z  M 136.8 8.75 L 138 8.75 C 138.393 8.698 138.788 8.825 139.077 9.097 C 139.366 9.368 139.517 9.755 139.49 10.15 C 139.518 10.547 139.365 10.936 139.074 11.208 C 138.783 11.48 138.384 11.605 137.99 11.55 L 136.78 11.55 L 136.8 8.75 Z  M 142.66 14.93 C 143.322 14.951 143.941 14.605 144.27 14.03 L 144.27 14.03 L 144.27 14.87 L 145.27 14.87 L 145.27 11.37 C 145.27 10.37 144.46 9.69 143.2 9.69 C 142.217 9.595 141.335 10.292 141.2 11.27 L 142.2 11.27 C 142.328 10.829 142.741 10.532 143.2 10.55 C 143.87 10.55 144.2 10.86 144.2 11.44 L 144.2 11.83 L 142.83 11.91 C 141.56 11.99 140.83 12.51 140.83 13.41 C 140.844 13.858 141.051 14.278 141.398 14.562 C 141.745 14.846 142.198 14.965 142.64 14.89 L 142.66 14.93 Z  M 142.96 14.09 C 142.37 14.09 141.96 13.81 141.96 13.38 C 141.96 12.95 142.32 12.68 142.96 12.64 L 144.18 12.56 L 144.18 12.96 C 144.127 13.598 143.579 14.079 142.94 14.05 L 142.96 14.09 Z  M 146.66 16.79 C 147.73 16.79 148.23 16.38 148.66 15.15 L 150.58 9.76 L 149.46 9.76 L 148.17 13.92 L 148.17 13.92 L 146.88 9.76 L 145.71 9.76 L 147.57 14.89 L 147.47 15.2 C 147.399 15.646 147.001 15.966 146.55 15.94 L 146.23 15.94 L 146.23 16.78 C 146.367 16.781 146.504 16.771 146.64 16.75 L 146.66 16.79 Z " fill="rgb(255,255,255)"/></g><g><path d=" M 193 1 C 195.209 1 197 2.791 197 5 L 197 19 C 197 21.209 195.209 23 193 23 L 165 23 C 162.791 23 161 21.209 161 19 L 161 5 C 161 2.791 162.791 1 165 1 L 193 1 Z  M 193 0 L 165 0 C 162.239 0 160 2.239 160 5 L 160 19 C 160 21.761 162.239 24 165 24 L 193 24 C 195.761 24 198 21.761 198 19 L 198 5 C 198 2.239 195.761 0 193 0 Z " fill="rgb(255,255,255)"/><path d=" M 175.7 7.83 L 175.7 14.83 L 176.8 14.83 L 176.8 12.42 L 178.31 12.42 C 178.938 12.454 179.551 12.222 179.999 11.78 C 180.446 11.338 180.686 10.728 180.66 10.1 C 180.692 9.478 180.459 8.872 180.019 8.431 C 179.578 7.991 178.972 7.758 178.35 7.79 L 175.7 7.83 Z  M 176.8 8.75 L 178 8.75 C 178.393 8.698 178.788 8.825 179.077 9.097 C 179.366 9.368 179.517 9.755 179.49 10.15 C 179.518 10.547 179.365 10.936 179.074 11.208 C 178.783 11.48 178.384 11.605 177.99 11.55 L 176.78 11.55 L 176.8 8.75 Z  M 182.66 14.93 C 183.322 14.951 183.941 14.605 184.27 14.03 L 184.27 14.03 L 184.27 14.87 L 185.27 14.87 L 185.27 11.37 C 185.27 10.37 184.46 9.69 183.2 9.69 C 182.217 9.595 181.335 10.292 181.2 11.27 L 182.2 11.27 C 182.328 10.829 182.741 10.532 183.2 10.55 C 183.87 10.55 184.2 10.86 184.2 11.44 L 184.2 11.83 L 182.83 11.91 C 181.56 11.99 180.83 12.51 180.83 13.41 C 180.844 13.858 181.051 14.278 181.398 14.562 C 181.745 14.846 182.198 14.965 182.64 14.89 L 182.66 14.93 Z  M 182.96 14.09 C 182.37 14.09 181.96 13.81 181.96 13.38 C 181.96 12.95 182.32 12.68 182.96 12.64 L 184.18 12.56 L 184.18 12.96 C 184.127 13.598 183.579 14.079 182.94 14.05 L 182.96 14.09 Z  M 186.66 16.79 C 187.73 16.79 188.23 16.38 188.66 15.15 L 190.58 9.76 L 189.46 9.76 L 188.17 13.92 L 188.17 13.92 L 186.88 9.76 L 185.71 9.76 L 187.57 14.89 L 187.47 15.2 C 187.399 15.646 187.001 15.966 186.55 15.94 L 186.23 15.94 L 186.23 16.78 C 186.367 16.781 186.504 16.771 186.64 16.75 L 186.66 16.79 Z " fill="rgb(255,255,255)"/><path d=" M 169.249 12.257 L 169.249 11.156 L 172.138 11.156 L 172.138 15.099 L 172.138 15.099 Q 171.429 15.33 170.777 15.426 L 170.777 15.426 L 170.777 15.426 Q 170.124 15.523 169.367 15.523 L 169.367 15.523 L 169.367 15.523 Q 167.583 15.523 166.617 14.468 L 166.617 14.468 L 166.617 14.468 Q 165.65 13.412 165.65 11.489 L 165.65 11.489 L 165.65 11.489 Q 165.65 9.593 166.74 8.522 L 166.74 8.522 L 166.74 8.522 Q 167.831 7.45 169.743 7.45 L 169.743 7.45 L 169.743 7.45 Q 170.973 7.45 172.074 7.923 L 172.074 7.923 L 171.623 8.992 L 171.623 8.992 Q 170.667 8.551 169.71 8.551 L 169.71 8.551 L 169.71 8.551 Q 168.454 8.551 167.723 9.341 L 167.723 9.341 L 167.723 9.341 Q 166.993 10.13 166.993 11.5 L 166.993 11.5 L 166.993 11.5 Q 166.993 12.939 167.651 13.689 L 167.651 13.689 L 167.651 13.689 Q 168.309 14.438 169.544 14.438 L 169.544 14.438 L 169.544 14.438 Q 170.167 14.438 170.876 14.282 L 170.876 14.282 L 170.876 12.257 L 169.249 12.257 L 169.249 12.257 Z " fill="rgb(255,255,255)"/></g></g></svg>